<svg width="160" height="25" viewBox="0 0 160 25" fill="none" xmlns="http://www.w3.org/2000/svg">
<path d="M11.69 24.24L0.35 17.73V14.97L11.69 8.46L13.46 11.73L3.08 17.37V15.3L13.46 20.94L11.69 24.24ZM147.992 24.24L146.192 20.94L156.632 15.3V17.37L146.192 11.73L147.992 8.46L159.362 14.97V17.73L147.992 24.24Z" fill="white"/>
<path d="M17.521 24V3H26.431C27.691 3 28.821 3.3 29.821 3.9C30.821 4.48 31.611 5.28 32.191 6.3C32.791 7.3 33.091 8.44 33.091 9.72C33.091 11.02 32.791 12.2 32.191 13.26C31.611 14.3 30.821 15.13 29.821 15.75C28.821 16.35 27.691 16.65 26.431 16.65H22.021V24H17.521ZM21.961 12.57H25.951C26.411 12.57 26.831 12.45 27.211 12.21C27.591 11.97 27.901 11.64 28.141 11.22C28.381 10.8 28.501 10.32 28.501 9.78C28.501 9.24 28.381 8.77 28.141 8.37C27.901 7.97 27.591 7.65 27.211 7.41C26.831 7.17 26.411 7.05 25.951 7.05H21.961V12.57ZM43.5777 24.3C41.9577 24.3 40.5177 23.95 39.2577 23.25C37.9977 22.53 36.9977 21.55 36.2577 20.31C35.5377 19.07 35.1777 17.66 35.1777 16.08C35.1777 14.48 35.5377 13.06 36.2577 11.82C36.9977 10.56 37.9977 9.58 39.2577 8.88C40.5177 8.16 41.9577 7.8 43.5777 7.8C45.1977 7.8 46.6377 8.16 47.8977 8.88C49.1577 9.58 50.1477 10.56 50.8677 11.82C51.6077 13.06 51.9777 14.48 51.9777 16.08C51.9777 17.66 51.6077 19.07 50.8677 20.31C50.1477 21.55 49.1577 22.53 47.8977 23.25C46.6377 23.95 45.1977 24.3 43.5777 24.3ZM43.5777 20.61C44.3577 20.61 45.0577 20.41 45.6777 20.01C46.2977 19.61 46.7777 19.07 47.1177 18.39C47.4777 17.71 47.6477 16.94 47.6277 16.08C47.6477 15.18 47.4777 14.39 47.1177 13.71C46.7777 13.01 46.2977 12.47 45.6777 12.09C45.0577 11.69 44.3577 11.49 43.5777 11.49C42.7977 11.49 42.0877 11.69 41.4477 12.09C40.8277 12.49 40.3377 13.03 39.9777 13.71C39.6377 14.39 39.4777 15.18 39.4977 16.08C39.4777 16.94 39.6377 17.71 39.9777 18.39C40.3377 19.07 40.8277 19.61 41.4477 20.01C42.0877 20.41 42.7977 20.61 43.5777 20.61ZM55.1827 24V8.13H59.2927L59.4427 13.23L58.7227 12.15C58.9827 11.35 59.3727 10.62 59.8927 9.96C60.4327 9.3 61.0627 8.78 61.7827 8.4C62.5227 8 63.2927 7.8 64.0927 7.8C64.4527 7.8 64.7827 7.83 65.0827 7.89C65.4027 7.93 65.6727 8 65.8927 8.1L64.7527 12.75C64.5327 12.65 64.2427 12.56 63.8827 12.48C63.5427 12.38 63.1927 12.33 62.8327 12.33C62.3727 12.33 61.9327 12.42 61.5127 12.6C61.1127 12.76 60.7527 13 60.4327 13.32C60.1327 13.62 59.8927 13.98 59.7127 14.4C59.5527 14.82 59.4727 15.29 59.4727 15.81V24H55.1827ZM70.453 24V4.11H74.713V24H70.453ZM67.483 11.94V8.13H77.983V11.94H67.483ZM81.2279 24V7.02C81.2279 6.02 81.4379 5.13 81.8579 4.35C82.2979 3.57 82.9079 2.95 83.6879 2.49C84.4679 2.01 85.3779 1.77 86.4179 1.77C87.1179 1.77 87.7679 1.89 88.3679 2.13C88.9879 2.35 89.5279 2.66 89.9879 3.06L88.6979 6.21C88.4379 6.03 88.1779 5.89 87.9179 5.79C87.6579 5.69 87.4179 5.64 87.1979 5.64C86.8179 5.64 86.4979 5.7 86.2379 5.82C85.9779 5.94 85.7879 6.13 85.6679 6.39C85.5479 6.63 85.4879 6.93 85.4879 7.29V24H83.3579C82.9179 24 82.5179 24 82.1579 24C81.7979 24 81.4879 24 81.2279 24ZM78.8279 12.15V8.52H88.9079V12.15H78.8279ZM98.5386 24.3C96.9186 24.3 95.4786 23.95 94.2186 23.25C92.9586 22.53 91.9586 21.55 91.2186 20.31C90.4986 19.07 90.1386 17.66 90.1386 16.08C90.1386 14.48 90.4986 13.06 91.2186 11.82C91.9586 10.56 92.9586 9.58 94.2186 8.88C95.4786 8.16 96.9186 7.8 98.5386 7.8C100.159 7.8 101.599 8.16 102.859 8.88C104.119 9.58 105.109 10.56 105.829 11.82C106.569 13.06 106.939 14.48 106.939 16.08C106.939 17.66 106.569 19.07 105.829 20.31C105.109 21.55 104.119 22.53 102.859 23.25C101.599 23.95 100.159 24.3 98.5386 24.3ZM98.5386 20.61C99.3186 20.61 100.019 20.41 100.639 20.01C101.259 19.61 101.739 19.07 102.079 18.39C102.439 17.71 102.609 16.94 102.589 16.08C102.609 15.18 102.439 14.39 102.079 13.71C101.739 13.01 101.259 12.47 100.639 12.09C100.019 11.69 99.3186 11.49 98.5386 11.49C97.7586 11.49 97.0486 11.69 96.4086 12.09C95.7886 12.49 95.2986 13.03 94.9386 13.71C94.5986 14.39 94.4386 15.18 94.4586 16.08C94.4386 16.94 94.5986 17.71 94.9386 18.39C95.2986 19.07 95.7886 19.61 96.4086 20.01C97.0486 20.41 97.7586 20.61 98.5386 20.61ZM96.2886 6.15L94.9686 4.17L99.9786 0.0899985L102.109 3.03L96.2886 6.15ZM110.174 24V1.8H114.434V24H110.174ZM119.088 24V8.13H123.348V24H119.088ZM121.188 4.86C120.368 4.86 119.728 4.66 119.268 4.26C118.808 3.86 118.578 3.29 118.578 2.55C118.578 1.87 118.808 1.32 119.268 0.899999C119.748 0.459998 120.398 0.239998 121.218 0.239998C122.018 0.239998 122.648 0.449999 123.108 0.869999C123.568 1.27 123.798 1.83 123.798 2.55C123.798 3.25 123.568 3.81 123.108 4.23C122.648 4.65 122.008 4.86 121.188 4.86ZM135.277 24.3C133.657 24.3 132.217 23.95 130.957 23.25C129.697 22.53 128.697 21.55 127.957 20.31C127.237 19.07 126.877 17.66 126.877 16.08C126.877 14.48 127.237 13.06 127.957 11.82C128.697 10.56 129.697 9.58 130.957 8.88C132.217 8.16 133.657 7.8 135.277 7.8C136.897 7.8 138.337 8.16 139.597 8.88C140.857 9.58 141.847 10.56 142.567 11.82C143.307 13.06 143.677 14.48 143.677 16.08C143.677 17.66 143.307 19.07 142.567 20.31C141.847 21.55 140.857 22.53 139.597 23.25C138.337 23.95 136.897 24.3 135.277 24.3ZM135.277 20.61C136.057 20.61 136.757 20.41 137.377 20.01C137.997 19.61 138.477 19.07 138.817 18.39C139.177 17.71 139.347 16.94 139.327 16.08C139.347 15.18 139.177 14.39 138.817 13.71C138.477 13.01 137.997 12.47 137.377 12.09C136.757 11.69 136.057 11.49 135.277 11.49C134.497 11.49 133.787 11.69 133.147 12.09C132.527 12.49 132.037 13.03 131.677 13.71C131.337 14.39 131.177 15.18 131.197 16.08C131.177 16.94 131.337 17.71 131.677 18.39C132.037 19.07 132.527 19.61 133.147 20.01C133.787 20.41 134.497 20.61 135.277 20.61Z" fill="#FF7300"/>
</svg>
