<svg width="221" height="54" viewBox="0 0 221 54" fill="none" xmlns="http://www.w3.org/2000/svg">
<path d="M3.85019 41.9643L0.00979792 52.9301H12.2975L15.6791 41.9643H3.85019Z" fill="#0F1B33"/>
<path d="M33.6598 3.46257H17.3298L6.87899 33.3108H0V41.9643H34.8145L38.1961 52.9301H50.8975L33.6598 3.46257ZM18.4021 33.3069L20.2978 27.2067C21.7015 22.7546 23.1031 18.1378 24.3401 13.6857H26.3201C27.4748 18.1378 28.7941 22.7546 30.1958 27.2067L32.0935 33.3069H18.4021Z" fill="#0F1B33"/>
<path d="M65.4945 52.9281H54.2772V0H65.4945V52.9281Z" fill="#0F1B33"/>
<path d="M71.6795 34.2142C71.6795 20.6931 79.0192 12.7784 91.7225 12.7784C103.763 12.7784 109.454 19.8681 109.454 30.6693C109.454 32.3173 109.372 33.885 109.207 35.9464H82.7321C83.3928 42.2132 86.2785 45.0153 91.6401 45.0153C97.0018 45.0153 98.5681 42.5424 99.5581 39.5736L108.96 42.1289C107.229 48.8894 102.691 54 91.5578 54C79.7641 54 71.6815 47.4864 71.6815 34.2142H71.6795ZM99.1445 30.2558C98.9798 24.1557 96.4235 21.1869 91.3912 21.1869C86.3589 21.1869 83.3908 23.8245 82.8125 30.2558H99.1445Z" fill="#0F1B33"/>
<path d="M131.804 37.5121H130.403L124.3 52.9281H111.763V52.0208L122.981 32.4819L111.928 14.7556V13.8483H124.794L131.557 28.9351H133.041L139.227 13.8483H151.103V14.7556L140.463 34.1299L151.598 52.0208V52.9281H138.732L131.804 37.5121Z" fill="#0F1B33"/>
<path d="M163.18 34.128V24.138H167.135C168.191 24.138 169.118 24.3516 169.918 24.7808C170.718 25.2099 171.34 25.7998 171.781 26.5503C172.224 27.3028 172.445 28.163 172.445 29.133C172.445 30.103 172.224 30.9652 171.781 31.7157C171.338 32.4682 170.716 33.058 169.918 33.4852C169.118 33.9124 168.191 34.128 167.135 34.128H163.18ZM163.908 33.4715H167.078C168.021 33.4715 168.838 33.2853 169.534 32.915C170.228 32.5446 170.767 32.0332 171.147 31.3806C171.528 30.7281 171.718 29.9795 171.718 29.133C171.718 28.2865 171.528 27.5379 171.147 26.8854C170.767 26.2328 170.228 25.7214 169.534 25.351C168.84 24.9807 168.021 24.7945 167.078 24.7945H163.908V33.4715Z" fill="#0F1B33"/>
<path d="M181.869 33.4715V34.128H174.972V24.138H181.653V24.7945H175.699V33.4715H181.869ZM175.615 28.7332H181.026V29.376H175.615V28.7332Z" fill="#0F1B33"/>
<path d="M187.15 34.1985C186.407 34.1985 185.705 34.0731 185.045 33.8203C184.382 33.5675 183.87 33.2422 183.51 32.8425L183.839 32.2997C184.182 32.6524 184.651 32.9483 185.245 33.1913C185.839 33.4343 186.47 33.5558 187.136 33.5558C187.803 33.5558 188.348 33.4676 188.771 33.2912C189.195 33.1149 189.508 32.8797 189.714 32.5858C189.918 32.2918 190.022 31.9626 190.022 31.6021C190.022 31.1729 189.908 30.832 189.679 30.5752C189.452 30.3185 189.152 30.1147 188.779 29.9619C188.409 29.8091 188.003 29.6817 187.566 29.5759C187.128 29.472 186.685 29.3603 186.238 29.2408C185.792 29.1212 185.382 28.9664 185.011 28.7764C184.641 28.5863 184.343 28.3276 184.119 27.9984C183.896 27.6712 183.784 27.244 183.784 26.7208C183.784 26.2446 183.908 25.8076 184.155 25.4079C184.402 25.0081 184.788 24.6848 185.311 24.4379C185.835 24.191 186.505 24.0675 187.325 24.0675C187.877 24.0675 188.422 24.1478 188.96 24.3105C189.497 24.4731 189.957 24.6906 190.338 24.9669L190.067 25.5529C189.648 25.2668 189.199 25.0551 188.718 24.918C188.238 24.7808 187.773 24.7102 187.326 24.7102C186.689 24.7102 186.16 24.8004 185.742 24.9807C185.323 25.1609 185.015 25.402 184.815 25.7018C184.615 26.0016 184.515 26.3367 184.515 26.7071C184.515 27.1342 184.627 27.4772 184.851 27.7339C185.074 27.9906 185.372 28.1963 185.742 28.3472C186.113 28.5001 186.523 28.6274 186.97 28.7333C187.417 28.8391 187.86 28.9488 188.297 29.0683C188.734 29.1879 189.14 29.3427 189.51 29.5328C189.881 29.7228 190.181 29.9795 190.41 30.3029C190.638 30.6262 190.753 31.0455 190.753 31.559C190.753 32.0253 190.624 32.4604 190.367 32.864C190.11 33.2677 189.718 33.591 189.189 33.834C188.661 34.077 187.983 34.1985 187.154 34.1985H187.15Z" fill="#0F1B33"/>
<path d="M193.219 34.128V24.138H193.947V34.128H193.219Z" fill="#0F1B33"/>
<path d="M201.7 34.1985C200.947 34.1985 200.253 34.0731 199.616 33.8203C198.979 33.5675 198.424 33.2128 197.954 32.7563C197.483 32.2997 197.119 31.7647 196.862 31.1514C196.605 30.538 196.476 29.8639 196.476 29.133C196.476 28.4021 196.605 27.728 196.862 27.1127C197.119 26.4993 197.485 25.9644 197.962 25.5078C198.438 25.0512 198.991 24.6965 199.624 24.4437C200.257 24.191 200.953 24.0655 201.716 24.0655C202.478 24.0655 203.11 24.1792 203.729 24.4085C204.349 24.6377 204.876 24.9787 205.313 25.4353L204.856 25.9213C204.419 25.4941 203.941 25.1884 203.421 25.0081C202.902 24.8278 202.339 24.7377 201.729 24.7377C201.083 24.7377 200.483 24.8474 199.93 25.0649C199.377 25.2844 198.897 25.592 198.489 25.9918C198.079 26.3916 197.764 26.8579 197.54 27.3909C197.317 27.9239 197.205 28.504 197.205 29.133C197.205 29.762 197.317 30.3421 197.54 30.8731C197.764 31.4061 198.079 31.8725 198.489 32.2722C198.899 32.672 199.379 32.9816 199.93 33.1991C200.483 33.4186 201.081 33.5264 201.729 33.5264C202.32 33.5264 202.878 33.4362 203.408 33.2559C203.935 33.0757 204.419 32.7758 204.856 32.3565L205.27 32.913C204.823 33.3402 204.288 33.6616 203.664 33.8771C203.041 34.0907 202.386 34.1985 201.702 34.1985H201.7ZM204.568 32.8444V29.1761H205.268V32.915L204.568 32.8444Z" fill="#0F1B33"/>
<path d="M208.467 34.128V24.138H209.081L216.205 33.2285H215.876V24.138H216.603V34.128H216.003L208.865 25.0375H209.193V34.128H208.465H208.467Z" fill="#0F1B33"/>
<path d="M165.437 51.3252C164.81 51.3252 164.249 51.2213 163.759 51.0116C163.269 50.802 162.882 50.51 162.602 50.1337C162.322 49.7575 162.181 49.3225 162.181 48.8287C162.181 48.4191 162.271 48.0409 162.451 47.6941C162.632 47.3472 162.93 47.0004 163.343 46.6516C163.757 46.3047 164.312 45.9363 165.006 45.5464C165.615 45.1937 166.096 44.8899 166.446 44.6332C166.799 44.3765 167.046 44.1296 167.189 43.8905C167.333 43.6534 167.403 43.3967 167.403 43.1204C167.403 42.7109 167.268 42.3836 166.995 42.1367C166.725 41.8898 166.337 41.7664 165.831 41.7664C165.298 41.7664 164.882 41.9016 164.582 42.174C164.282 42.4444 164.133 42.8049 164.133 43.2517C164.133 43.4614 164.167 43.6613 164.233 43.8513C164.3 44.0414 164.421 44.2531 164.598 44.4862C164.774 44.7194 165.019 45.0075 165.333 45.3504L170.63 50.9313L170.201 51.4016L164.747 45.664C164.414 45.3112 164.153 45.0036 163.961 44.7371C163.771 44.4706 163.639 44.2217 163.569 43.9885C163.496 43.7553 163.461 43.5104 163.461 43.2537C163.461 42.8441 163.559 42.4875 163.753 42.1838C163.947 41.88 164.223 41.6409 164.58 41.4705C164.937 41.3 165.353 41.2138 165.829 41.2138C166.276 41.2138 166.664 41.2902 166.993 41.443C167.323 41.5959 167.576 41.8114 167.758 42.0917C167.938 42.3719 168.028 42.7128 168.028 43.1126C168.028 43.4653 167.944 43.7906 167.778 44.0904C167.611 44.3902 167.333 44.69 166.942 44.9899C166.552 45.2897 166.019 45.6306 165.343 46.0108C164.715 46.3733 164.219 46.7006 163.859 46.9945C163.496 47.2904 163.243 47.5765 163.094 47.8587C162.947 48.1389 162.873 48.4465 162.873 48.7797C162.873 49.1696 162.982 49.5126 163.202 49.8065C163.422 50.1024 163.723 50.3297 164.108 50.4923C164.494 50.655 164.943 50.7353 165.456 50.7353C166.143 50.7353 166.75 50.5942 167.284 50.314C167.817 50.0338 168.264 49.6086 168.626 49.0364C168.987 48.4661 169.25 47.747 169.412 46.8809L169.999 47.067C169.818 48.0096 169.518 48.7954 169.099 49.4283C168.679 50.0612 168.162 50.5374 167.542 50.8549C166.923 51.1743 166.219 51.333 165.429 51.333L165.437 51.3252Z" fill="#0F1B33"/>
<path d="M178.999 51.2527L174.545 41.2628H175.345L179.599 50.8098H179.156L183.425 41.2628H184.182L179.728 51.2527H178.999Z" fill="#0F1B33"/>
<path d="M186.009 51.2527V41.2628H186.736V51.2527H186.009Z" fill="#0F1B33"/>
<path d="M190.22 51.2527V41.2628H194.174C195.231 41.2628 196.158 41.4764 196.958 41.9055C197.758 42.3347 198.379 42.9245 198.82 43.675C199.263 44.4275 199.485 45.2877 199.485 46.2577C199.485 47.2277 199.263 48.0899 198.82 48.8404C198.377 49.5929 197.756 50.1827 196.958 50.6099C196.158 51.0371 195.231 51.2527 194.174 51.2527H190.22ZM190.949 50.5962H194.119C195.062 50.5962 195.88 50.4101 196.576 50.0397C197.27 49.6693 197.809 49.1579 198.189 48.5054C198.569 47.8528 198.759 47.1043 198.759 46.2577C198.759 45.4112 198.569 44.6626 198.189 44.0101C197.809 43.3575 197.27 42.8461 196.576 42.4757C195.882 42.1054 195.062 41.9192 194.119 41.9192H190.949V50.5962Z" fill="#0F1B33"/>
<path d="M208.908 50.5962V51.2527H202.012V41.2628H208.693V41.9192H202.739V50.5962H208.908ZM202.657 45.858H208.067V46.5007H202.657V45.858Z" fill="#0F1B33"/>
<path d="M215.805 51.3252C215.062 51.3252 214.374 51.1998 213.743 50.947C213.109 50.6942 212.559 50.3375 212.086 49.877C211.616 49.4165 211.251 48.8777 210.994 48.2643C210.737 47.651 210.608 46.9828 210.608 46.2597C210.608 45.5366 210.737 44.8684 210.994 44.255C211.251 43.6417 211.616 43.1048 212.086 42.6423C212.557 42.1798 213.109 41.8232 213.743 41.5724C214.376 41.3196 215.064 41.1942 215.805 41.1942C216.546 41.1942 217.234 41.3196 217.867 41.5724C218.501 41.8252 219.049 42.1798 219.516 42.6364C219.983 43.093 220.347 43.628 220.608 44.2413C220.871 44.8547 221 45.5288 221 46.2616C221 46.9945 220.869 47.6666 220.608 48.28C220.345 48.8933 219.983 49.4283 219.516 49.8849C219.049 50.3415 218.501 50.6961 217.867 50.9489C217.234 51.2017 216.546 51.3271 215.805 51.3271V51.3252ZM215.805 50.653C216.442 50.653 217.032 50.5433 217.575 50.3258C218.118 50.1063 218.589 49.7987 218.989 49.3989C219.389 48.9992 219.7 48.5328 219.924 47.9998C220.147 47.4668 220.259 46.8867 220.259 46.2597C220.259 45.6326 220.147 45.0389 219.924 44.5117C219.7 43.9846 219.389 43.5202 218.989 43.1204C218.589 42.7207 218.118 42.4111 217.575 42.1936C217.032 41.9741 216.442 41.8663 215.805 41.8663C215.168 41.8663 214.578 41.976 214.035 42.1936C213.492 42.413 213.019 42.7207 212.613 43.1204C212.21 43.5202 211.894 43.9846 211.671 44.5117C211.447 45.0389 211.335 45.6228 211.335 46.2597C211.335 46.8965 211.447 47.4687 211.671 47.9998C211.894 48.5328 212.208 48.9992 212.613 49.3989C213.017 49.7987 213.492 50.1083 214.035 50.3258C214.578 50.5453 215.168 50.653 215.805 50.653Z" fill="#0F1B33"/>
</svg>
