<svg width="177" height="29" viewBox="0 0 177 29" fill="none" xmlns="http://www.w3.org/2000/svg">
<path d="M11.69 24.24L0.35 17.73V14.97L11.69 8.46L13.46 11.73L3.08 17.37V15.3L13.46 20.94L11.69 24.24ZM15.091 28.17L27.541 3H31.711L19.321 28.17H15.091ZM165.424 24.24L163.624 20.94L174.064 15.3V17.37L163.624 11.73L165.424 8.46L176.794 14.97V17.73L165.424 24.24Z" fill="white"/>
<path d="M34.9527 24V3H43.8627C45.1227 3 46.2527 3.3 47.2527 3.9C48.2527 4.48 49.0427 5.28 49.6227 6.3C50.2227 7.3 50.5227 8.44 50.5227 9.72C50.5227 11.02 50.2227 12.2 49.6227 13.26C49.0427 14.3 48.2527 15.13 47.2527 15.75C46.2527 16.35 45.1227 16.65 43.8627 16.65H39.4527V24H34.9527ZM39.3927 12.57H43.3827C43.8427 12.57 44.2627 12.45 44.6427 12.21C45.0227 11.97 45.3327 11.64 45.5727 11.22C45.8127 10.8 45.9327 10.32 45.9327 9.78C45.9327 9.24 45.8127 8.77 45.5727 8.37C45.3327 7.97 45.0227 7.65 44.6427 7.41C44.2627 7.17 43.8427 7.05 43.3827 7.05H39.3927V12.57ZM61.0093 24.3C59.3893 24.3 57.9493 23.95 56.6893 23.25C55.4293 22.53 54.4293 21.55 53.6893 20.31C52.9693 19.07 52.6093 17.66 52.6093 16.08C52.6093 14.48 52.9693 13.06 53.6893 11.82C54.4293 10.56 55.4293 9.58 56.6893 8.88C57.9493 8.16 59.3893 7.8 61.0093 7.8C62.6293 7.8 64.0693 8.16 65.3293 8.88C66.5893 9.58 67.5793 10.56 68.2993 11.82C69.0393 13.06 69.4093 14.48 69.4093 16.08C69.4093 17.66 69.0393 19.07 68.2993 20.31C67.5793 21.55 66.5893 22.53 65.3293 23.25C64.0693 23.95 62.6293 24.3 61.0093 24.3ZM61.0093 20.61C61.7893 20.61 62.4893 20.41 63.1093 20.01C63.7293 19.61 64.2093 19.07 64.5493 18.39C64.9093 17.71 65.0793 16.94 65.0593 16.08C65.0793 15.18 64.9093 14.39 64.5493 13.71C64.2093 13.01 63.7293 12.47 63.1093 12.09C62.4893 11.69 61.7893 11.49 61.0093 11.49C60.2293 11.49 59.5193 11.69 58.8793 12.09C58.2593 12.49 57.7693 13.03 57.4093 13.71C57.0693 14.39 56.9093 15.18 56.9293 16.08C56.9093 16.94 57.0693 17.71 57.4093 18.39C57.7693 19.07 58.2593 19.61 58.8793 20.01C59.5193 20.41 60.2293 20.61 61.0093 20.61ZM72.6144 24V8.13H76.7244L76.8744 13.23L76.1544 12.15C76.4144 11.35 76.8044 10.62 77.3244 9.96C77.8644 9.3 78.4944 8.78 79.2144 8.4C79.9544 8 80.7244 7.8 81.5244 7.8C81.8844 7.8 82.2144 7.83 82.5144 7.89C82.8344 7.93 83.1044 8 83.3244 8.1L82.1844 12.75C81.9644 12.65 81.6744 12.56 81.3144 12.48C80.9744 12.38 80.6244 12.33 80.2644 12.33C79.8044 12.33 79.3644 12.42 78.9444 12.6C78.5444 12.76 78.1844 13 77.8644 13.32C77.5644 13.62 77.3244 13.98 77.1444 14.4C76.9844 14.82 76.9044 15.29 76.9044 15.81V24H72.6144ZM87.8846 24V4.11H92.1446V24H87.8846ZM84.9146 11.94V8.13H95.4146V11.94H84.9146ZM98.6595 24V7.02C98.6595 6.02 98.8695 5.13 99.2895 4.35C99.7295 3.57 100.34 2.95 101.12 2.49C101.9 2.01 102.81 1.77 103.85 1.77C104.55 1.77 105.2 1.89 105.8 2.13C106.42 2.35 106.96 2.66 107.42 3.06L106.13 6.21C105.87 6.03 105.61 5.89 105.35 5.79C105.09 5.69 104.85 5.64 104.63 5.64C104.25 5.64 103.93 5.7 103.67 5.82C103.41 5.94 103.22 6.13 103.1 6.39C102.98 6.63 102.92 6.93 102.92 7.29V24H100.79C100.35 24 99.9495 24 99.5895 24C99.2295 24 98.9195 24 98.6595 24ZM96.2595 12.15V8.52H106.34V12.15H96.2595ZM115.97 24.3C114.35 24.3 112.91 23.95 111.65 23.25C110.39 22.53 109.39 21.55 108.65 20.31C107.93 19.07 107.57 17.66 107.57 16.08C107.57 14.48 107.93 13.06 108.65 11.82C109.39 10.56 110.39 9.58 111.65 8.88C112.91 8.16 114.35 7.8 115.97 7.8C117.59 7.8 119.03 8.16 120.29 8.88C121.55 9.58 122.54 10.56 123.26 11.82C124 13.06 124.37 14.48 124.37 16.08C124.37 17.66 124 19.07 123.26 20.31C122.54 21.55 121.55 22.53 120.29 23.25C119.03 23.95 117.59 24.3 115.97 24.3ZM115.97 20.61C116.75 20.61 117.45 20.41 118.07 20.01C118.69 19.61 119.17 19.07 119.51 18.39C119.87 17.71 120.04 16.94 120.02 16.08C120.04 15.18 119.87 14.39 119.51 13.71C119.17 13.01 118.69 12.47 118.07 12.09C117.45 11.69 116.75 11.49 115.97 11.49C115.19 11.49 114.48 11.69 113.84 12.09C113.22 12.49 112.73 13.03 112.37 13.71C112.03 14.39 111.87 15.18 111.89 16.08C111.87 16.94 112.03 17.71 112.37 18.39C112.73 19.07 113.22 19.61 113.84 20.01C114.48 20.41 115.19 20.61 115.97 20.61ZM113.72 6.15L112.4 4.17L117.41 0.0899985L119.54 3.03L113.72 6.15ZM127.605 24V1.8H131.865V24H127.605ZM136.519 24V8.13H140.779V24H136.519ZM138.619 4.86C137.799 4.86 137.159 4.66 136.699 4.26C136.239 3.86 136.009 3.29 136.009 2.55C136.009 1.87 136.239 1.32 136.699 0.899999C137.179 0.459998 137.829 0.239998 138.649 0.239998C139.449 0.239998 140.079 0.449999 140.539 0.869999C140.999 1.27 141.229 1.83 141.229 2.55C141.229 3.25 140.999 3.81 140.539 4.23C140.079 4.65 139.439 4.86 138.619 4.86ZM152.709 24.3C151.089 24.3 149.649 23.95 148.389 23.25C147.129 22.53 146.129 21.55 145.389 20.31C144.669 19.07 144.309 17.66 144.309 16.08C144.309 14.48 144.669 13.06 145.389 11.82C146.129 10.56 147.129 9.58 148.389 8.88C149.649 8.16 151.089 7.8 152.709 7.8C154.329 7.8 155.769 8.16 157.029 8.88C158.289 9.58 159.279 10.56 159.999 11.82C160.739 13.06 161.109 14.48 161.109 16.08C161.109 17.66 160.739 19.07 159.999 20.31C159.279 21.55 158.289 22.53 157.029 23.25C155.769 23.95 154.329 24.3 152.709 24.3ZM152.709 20.61C153.489 20.61 154.189 20.41 154.809 20.01C155.429 19.61 155.909 19.07 156.249 18.39C156.609 17.71 156.779 16.94 156.759 16.08C156.779 15.18 156.609 14.39 156.249 13.71C155.909 13.01 155.429 12.47 154.809 12.09C154.189 11.69 153.489 11.49 152.709 11.49C151.929 11.49 151.219 11.69 150.579 12.09C149.959 12.49 149.469 13.03 149.109 13.71C148.769 14.39 148.609 15.18 148.629 16.08C148.609 16.94 148.769 17.71 149.109 18.39C149.469 19.07 149.959 19.61 150.579 20.01C151.219 20.41 151.929 20.61 152.709 20.61Z" fill="#FF7300"/>
</svg>
